<?xml version="1.0" encoding="UTF-8"?><svg id="_レイヤー_1" xmlns="http://www.w3.org/2000/svg" viewBox="0 0 213.93 105.86"><defs><style>.cls-1{fill:#005bac;}.cls-2{fill:#231815;}</style></defs><g><path class="cls-2" d="m24.89,83.72c.5-.37,1.04-.71,1.04-1.66v-17.05c0-.96-.54-1.29-1.04-1.66h5.87v3.24h.08c.29-1.91,1.83-3.2,3.87-3.33.75-.04,1.87-.33,2.58-1.17v6.61c-.5-.38-1.25-.62-2.29-.62-1.25,0-2.83.54-3.91,2.79v11.19c0,.96.54,1.29,1.04,1.66h-7.24Z"/><path class="cls-2" d="m56.13,83.72v-2h-.08c-1.12,2.04-3.41,2.66-5.78,2.66-5.53,0-10.98-4.58-10.98-10.86s5.45-10.86,10.98-10.86c4.95,0,7.28,2.45,9.19,3.99.79.62,1.96.75,2.25.75-.5.33-1.04,1-1.04,1.75v12.89c0,.96.54,1.29,1.04,1.66h-5.57Zm-.29-14.02c-1.46-1.25-3.08-2.21-5.24-2.21-3.37,0-6.16,2.79-6.16,6.03s2.79,6.03,6.16,6.03c2.16,0,3.79-.96,5.24-2.21v-7.65Z"/><path class="cls-2" d="m70.15,82.05c0,.96.54,1.29,1.04,1.66h-7.24c.5-.37,1.04-.71,1.04-1.66v-17.05c0-.96-.54-1.29-1.04-1.66h6.2v18.72Zm-2.58-21.34c-1.71,0-3.12-1.42-3.12-3.04s1.41-3.04,3.12-3.04,3.12,1.41,3.12,3.04-1.41,3.04-3.12,3.04Z"/><path class="cls-2" d="m73.11,77.27c1.41,1.71,3.29,2.95,5.7,2.95,2.2,0,3.16-1,3.16-2.45,0-3.33-8.4-2.87-8.4-9.23,0-3.54,2.75-5.86,6.61-5.86.96,0,1.83.17,2.54.33.71.17,1.29.33,1.62.33.37,0,.67-.21.92-.46v6.24c-.79-1.33-2.25-2.29-4.16-2.29-1.12,0-2.37.46-2.37,1.71,0,2.58,8.4,2.5,8.4,9.07,0,4.45-3.62,6.78-7.74,6.78-1.08,0-2.08-.17-2.95-.33-.83-.17-1.54-.33-2-.33-.58,0-.96.21-1.33.46v-6.91Z"/><path class="cls-2" d="m94.82,75.07c.5,3.2,2.58,4.82,6.03,4.82,2.37,0,4.37-.96,5.74-2.58v6.86c-.37-.25-.75-.46-1.33-.46-.92,0-2.79.67-4.95.67-6.41,0-10.65-4.99-10.65-10.86s4.24-10.86,10.65-10.86c5.32,0,8.9,4.24,9.73,8.73.25,1.33.58,3.12.87,3.66h-16.1Zm10.44-3.66c-.75-2.79-2.29-4.24-5.24-4.24s-4.49,1.46-5.2,4.24h10.44Z"/><path class="cls-2" d="m109.75,83.72c.71-.5,1.62-1.33,2.29-2.16l6.91-8.61-6.07-7.57c-.71-.87-1.54-1.66-2.16-2.04h8.36c-.46.29-.71.62-.71.83,0,.42.17.75.5,1.21l3,3.99h.08l3-3.99c.33-.46.5-.79.5-1.21,0-.21-.25-.54-.71-.83h8.32c-.62.37-1.46,1.17-2.16,2.04l-6.07,7.57,6.9,8.61c.67.83,1.58,1.66,2.29,2.16h-8.24c.46-.29.71-.62.71-.83,0-.33-.5-1-.92-1.54l-3.7-4.78-3.7,4.78c-.42.54-.92,1.21-.92,1.54,0,.21.25.54.71.83h-8.19Z"/></g><path class="cls-1" d="m187.76,70.56c1.71-1.71,1.71-4.5,0-6.21l-15.44-15.44c-.85-.85-2.25-.85-3.1,0l-2.04,2.04c-1.71,1.71-4.5,1.71-6.21,0l-2.04-2.04c-.85-.85-.85-2.25,0-3.1l2.04-2.04c1.71-1.71,1.71-4.5,0-6.21l-15.44-15.44c-.85-.85-2.25-.85-3.1,0l-2.04,2.04c-1.71,1.71-4.5,1.71-6.21,0l-2.04-2.04c-.85-.85-2.25-.85-3.1,0l-15.44,15.44c-1.71,1.71-1.71,4.5,0,6.21l7.19,7.19c1.71,1.71,4.5,1.71,6.21,0l7.19-7.19c1.71-1.71,4.5-1.71,6.21,0l7.19,7.19c1.71,1.71,1.71,4.5,0,6.21l-7.19,7.19c-1.71,1.71-1.71,4.5,0,6.21l7.19,7.19c1.71,1.71,4.5,1.71,6.21,0l7.19-7.19c1.71-1.71,4.5-1.71,6.21,0l7.19,7.19c1.71,1.71,4.5,1.71,6.21,0l7.19-7.19Z"/></svg>